<svg xmlns="http://www.w3.org/2000/svg" viewBox="0 0 42.476 38.327">
  <defs>
    <style>
      .cls-1 {
        fill: #fff;
      }
    </style>
  </defs>
  <g id="np_weather_1826997_000000" transform="translate(-5.001 -9.394)">
    <path id="Path_27" data-name="Path 27" class="cls-1" d="M88.61,44.621H84.628a.6.6,0,1,0,0,1.195H88.61a.6.6,0,1,0,0-1.195Z" transform="translate(-41.731 -18.601)"/>
    <path id="Path_28" data-name="Path 28" class="cls-1" d="M81.042,30.2a.6.6,0,0,0,.3-.079l3.448-1.991a.6.6,0,1,0-.6-1.036l-3.448,1.991a.6.6,0,0,0,.3,1.115Z" transform="translate(-39.837 -9.302)"/>
    <path id="Path_29" data-name="Path 29" class="cls-1" d="M70.936,18.68a.6.6,0,0,0,.817-.219l1.991-3.448a.6.6,0,0,0-1.036-.6l-1.991,3.448a.6.6,0,0,0,.219.817Z" transform="translate(-34.658 -2.493)"/>
    <path id="Path_30" data-name="Path 30" class="cls-1" d="M57.84,14.571a.6.6,0,0,0,.6-.6V9.992a.6.6,0,1,0-1.195,0v3.982A.6.6,0,0,0,57.84,14.571Z" transform="translate(-27.586)"/>
    <path id="Path_31" data-name="Path 31" class="cls-1" d="M41.7,18.46a.6.6,0,0,0,.518.3.6.6,0,0,0,.518-.9l-1.991-3.448a.6.6,0,0,0-1.036.6Z" transform="translate(-18.287 -2.493)"/>
    <path id="Path_32" data-name="Path 32" class="cls-1" d="M27.037,28.124l3.448,1.991a.6.6,0,1,0,.6-1.034L27.634,27.09a.6.6,0,1,0-.6,1.034Z" transform="translate(-11.478 -9.302)"/>
    <path id="Path_33" data-name="Path 33" class="cls-1" d="M84.785,60.085l-3.449-1.991a.6.6,0,1,0-.6,1.036l3.449,1.991a.6.6,0,0,0,.3.079.6.6,0,0,0,.3-1.115Z" transform="translate(-39.834 -25.673)"/>
    <path id="Path_34" data-name="Path 34" class="cls-1" d="M40.558,34.365a10.293,10.293,0,0,0-20.276-2.516,8.67,8.67,0,0,0-7.837,6.416,8.643,8.643,0,0,0,1.2,17.2H33.859a6.693,6.693,0,0,0,2.575-12.874,10.262,10.262,0,0,0,4.124-8.228Zm-1.792,14.4a4.908,4.908,0,0,1-4.907,4.907H13.645a6.853,6.853,0,0,1,0-13.706c.109,0,.214.011.323.015a6.844,6.844,0,0,1,13.477-1.143A4.56,4.56,0,0,1,34,42.948a4.638,4.638,0,0,1-.09.911,4.909,4.909,0,0,1,4.854,4.907Z" transform="translate(0 -7.746)"/>
  </g>
</svg>
