<svg xmlns="http://www.w3.org/2000/svg" viewBox="0 0 255.711 255.711">
  <defs>
    <style>
      .cls-1 {
        fill: #32547b;
      }

      .cls-2 {
        fill: #f15a2a;
      }

      .cls-3 {
        fill: #e1e1eb;
      }

      .cls-4 {
        fill: #fff;
      }

      .cls-5 {
        fill: #f2b92b;
      }
    </style>
  </defs>
  <g id="Group_81" data-name="Group 81" transform="translate(-934 -2307.289)">
    <circle id="Ellipse_17" data-name="Ellipse 17" class="cls-1" cx="127.855" cy="127.855" r="127.855" transform="translate(934 2307.289)"/>
    <g id="Group_36" data-name="Group 36" transform="translate(991.348 2353.785)">
      <g id="Group_35" data-name="Group 35">
        <path id="Path_35" data-name="Path 35" class="cls-2" d="M70.99,0l69.99,56.465c-.338.068-1.555,6.086-1.927,6.086l-9.1,34.15L13.071,94.537,3.265,60.387c-.338,0-1.893-3.855-2.265-3.922Z" transform="translate(-0.662)"/>
        <rect id="Rectangle_22" data-name="Rectangle 22" class="cls-3" width="111.646" height="63.295" transform="translate(13.457 28.199)"/>
        <path id="Path_36" data-name="Path 36" class="cls-4" d="M134.164,142.5h-2.7V72.852c0-2.029-2.063-3.652-4.6-3.652H13.66c-2.536,0-4.6,1.623-4.6,3.652V142.5H6.052A6.068,6.068,0,0,0,0,148.556v37.159a6.046,6.046,0,0,0,6.052,6.052H134.164a6.046,6.046,0,0,0,6.052-6.052V148.556A6.068,6.068,0,0,0,134.164,142.5ZM24.31,75.151h91.9c3.652,0,6.627,2.333,6.627,5.241s-2.975,5.241-6.627,5.241H24.31c-3.652,0-6.627-2.333-6.627-5.241C17.683,77.518,20.659,75.151,24.31,75.151Zm0,15.215h91.9c3.652,0,6.627,2.333,6.627,5.241s-2.975,5.241-6.627,5.241H24.31c-3.652,0-6.627-2.333-6.627-5.241C17.683,92.733,20.659,90.366,24.31,90.366Zm0,15.215h91.9c3.652,0,6.627,2.333,6.627,5.241s-2.975,5.241-6.627,5.241H24.31c-3.652,0-6.627-2.367-6.627-5.241C17.683,107.914,20.659,105.581,24.31,105.581Zm0,15.215h91.9c3.652,0,6.627,2.333,6.627,5.241s-2.975,5.241-6.627,5.241H24.31c-3.652,0-6.627-2.333-6.627-5.241S20.659,120.8,24.31,120.8Z" transform="translate(0 -45.802)"/>
        <path id="Path_37" data-name="Path 37" class="cls-5" d="M98,292.6,80.858,306.868a2.835,2.835,0,0,1-1.893.676,2.928,2.928,0,0,1-1.86-.676L60,292.6,13.1,339.5a5.073,5.073,0,0,0,1.42.3H143.443a4.828,4.828,0,0,0,1.42-.3Z" transform="translate(-8.671 -193.668)"/>
        <path id="Path_38" data-name="Path 38" class="cls-5" d="M324.4,168.758a6.231,6.231,0,0,0-.338-1.758L277.6,205.714l46.525,46.525a6.6,6.6,0,0,0,.271-1.42Z" transform="translate(-183.739 -110.535)"/>
        <path id="Path_39" data-name="Path 39" class="cls-5" d="M.372,167A6.034,6.034,0,0,0,0,168.758v82.06a5.072,5.072,0,0,0,.3,1.42l46.525-46.525Z" transform="translate(0 -110.535)"/>
      </g>
    </g>
  </g>
</svg>
