<svg xmlns="http://www.w3.org/2000/svg" viewBox="0 0 99.896 82.754">
  <defs>
    <style>
      .cls-1 {
        fill: #c3c3c3;
      }
    </style>
  </defs>
  <g id="np_binoculars_22637_000000" transform="translate(0.001 -9.761)">
    <path id="Path_158" data-name="Path 158" class="cls-1" d="M40.8,19.98v0a.169.169,0,0,0,.02,0,6.4,6.4,0,0,1,6.145,3.969,5.592,5.592,0,0,1,5.773.012,6.4,6.4,0,0,1,6.148-3.98.169.169,0,0,1,.02,0v0h4.691c.07,0,.145-.008.219-.016a14.06,14.06,0,0,0-13.836-10.2A14.063,14.063,0,0,0,36.133,19.98Z"/>
    <path id="Path_159" data-name="Path 159" class="cls-1" d="M98.816,60.93,76.675,28.477a6.128,6.128,0,0,0-.937-1.062,12.023,12.023,0,0,1-4.762,14.773l7.094,10.4-9.559-3.238a73.353,73.353,0,0,0-14.6-2.18,12.356,12.356,0,0,0,5.629-4.242,12.07,12.07,0,0,1-6.984-10.25s-.133-3.336-2.75-3.312c-2.266.02-2.617,2.254-2.7,3.289,0,4.742-2.719,8.188-6.711,10.152a12.33,12.33,0,0,0,5.754,4.375s-8.508.23-14.762,2.172l-9.555,3.238,7.023-10.3a11.969,11.969,0,0,1-5.07-14.465,6.047,6.047,0,0,0-.555.66L1.081,60.929A6.215,6.215,0,0,0,8.206,70.32l20.68-7.012V92.515H70.777V63.234L91.683,70.32a6.22,6.22,0,0,0,7.133-9.391Z"/>
    <path id="Path_160" data-name="Path 160" class="cls-1" d="M35.082,41.566a9.586,9.586,0,1,1,9.59-9.586A9.6,9.6,0,0,1,35.082,41.566Zm0-14.227a4.641,4.641,0,1,0,4.641,4.641A4.646,4.646,0,0,0,35.082,27.339Z"/>
    <path id="Path_161" data-name="Path 161" class="cls-1" d="M64.582,41.566a9.586,9.586,0,1,1,9.586-9.586A9.6,9.6,0,0,1,64.582,41.566Zm0-14.227a4.641,4.641,0,1,0,4.637,4.641A4.643,4.643,0,0,0,64.582,27.339Z"/>
  </g>
</svg>
