<svg xmlns="http://www.w3.org/2000/svg" viewBox="0 0 77.266 69.794">
  <defs>
    <style>
      .cls-1 {
        opacity: 0.103;
      }

      .cls-2 {
        fill: #32547b;
      }
    </style>
  </defs>
  <g id="Group_179" data-name="Group 179" transform="translate(-1227 -1582)">
    <g id="np_quote_744342_000000" class="cls-1" transform="translate(1214.867 1562.801)">
      <path id="Path_168" data-name="Path 168" class="cls-2" d="M31.5,80.9c-8.6,0-18.3-6.3-19.3-20.2-1-13.6,9.3-32.1,30.8-40.9l1.5-.6,6.7,11.1-1.8.9c-9.9,5-14.8,13.6-16.7,17.7C43.9,50.7,48,58.1,48,64.7A16.519,16.519,0,0,1,31.5,80.9ZM16,60.4C16.8,71.8,24.6,77,31.5,77A12.593,12.593,0,0,0,44.2,64.6c0-3.3-1.4-11.3-14.4-12.3l-2.4-.2.8-2.3A41.8,41.8,0,0,1,45.9,28.7L43,23.9C24,32.2,15.1,48.4,16,60.4Z"/>
      <path id="Path_169" data-name="Path 169" class="cls-2" d="M69.7,80.9c-8.6,0-18.3-6.3-19.3-20.2-1-13.6,9.3-32.1,30.8-40.9l1.5-.6,6.7,11.1-1.8.9c-9.9,5-14.8,13.6-16.7,17.7,11.2,1.8,15.3,9.2,15.3,15.8A16.387,16.387,0,0,1,69.7,80.9ZM54.2,60.4C55,71.8,62.8,77,69.7,77A12.593,12.593,0,0,0,82.4,64.6c0-3.3-1.4-11.3-14.4-12.3l-2.4-.2.8-2.3A41.8,41.8,0,0,1,84.1,28.7l-2.9-4.8C62.3,32.2,53.4,48.4,54.2,60.4Z"/>
    </g>
    <g id="np_quote_744342_000000-2" data-name="np_quote_744342_000000" transform="translate(1221.552 1593.801)">
      <path id="Path_168-2" data-name="Path 168" class="cls-2" d="M24.31,57.992c-5.408,0-11.507-3.962-12.136-12.7-.629-8.552,5.848-20.184,19.366-25.715l.943-.378L36.7,26.18l-1.132.565a23.668,23.668,0,0,0-10.5,11.128c7.041,1.132,9.621,5.784,9.621,9.935A10.387,10.387,0,0,1,24.31,57.993ZM14.564,45.1c.5,7.169,5.408,10.439,9.746,10.439a7.918,7.918,0,0,0,7.985-7.8c0-2.075-.879-7.106-9.053-7.734l-1.508-.125.5-1.447A26.281,26.281,0,0,1,33.365,25.172l-1.822-3.019C19.594,27.373,14,37.558,14.564,45.1Z" transform="translate(0)"/>
      <path id="Path_169-2" data-name="Path 169" class="cls-2" d="M62.509,57.992c-5.408,0-11.507-3.962-12.136-12.7-.629-8.552,5.848-20.184,19.366-25.715l.943-.378,4.212,6.98-1.132.565a23.668,23.668,0,0,0-10.5,11.128c7.041,1.132,9.621,5.784,9.621,9.935A10.3,10.3,0,0,1,62.509,57.993ZM52.763,45.1c.5,7.169,5.408,10.439,9.746,10.439a7.918,7.918,0,0,0,7.985-7.8c0-2.075-.879-7.106-9.053-7.734l-1.508-.125.5-1.447A26.281,26.281,0,0,1,71.564,25.172l-1.822-3.019C57.857,27.373,52.26,37.558,52.763,45.1Z" transform="translate(-14.181)"/>
    </g>
  </g>
</svg>
