<svg xmlns="http://www.w3.org/2000/svg" viewBox="0 0 82.073 63.639">
  <defs>
    <style>
      .cls-1 {
        fill: #694b4b;
      }

      .cls-2 {
        fill: #5a4146;
      }

      .cls-3 {
        fill: #785550;
      }

      .cls-4 {
        fill: #e6af78;
      }

      .cls-5 {
        fill: #eff2fa;
      }

      .cls-6 {
        fill: #d29b6e;
      }

      .cls-7 {
        fill: #e4eaf6;
      }

      .cls-8 {
        fill: #f0c087;
      }

      .cls-9 {
        fill: #5b5d6e;
      }

      .cls-10 {
        fill: #515262;
      }

      .cls-11 {
        fill: #b4e1fa;
      }

      .cls-12 {
        fill: #a0d2f0;
      }
    </style>
  </defs>
  <g id="network" transform="translate(0 -57.5)">
    <path id="Path_82" data-name="Path 82" class="cls-1" d="M26.812,159.632c-13.167,0-11.707,16.012-11.647,27.616a1.239,1.239,0,0,0,.607,1.06,22.224,22.224,0,0,0,22.08,0,1.239,1.239,0,0,0,.607-1.06C38.519,175.644,39.979,159.632,26.812,159.632Z" transform="translate(-12.67 -85.76)"/>
    <path id="Path_83" data-name="Path 83" class="cls-2" d="M25.968,159.838c-12.246.687-10.858,16.237-10.8,27.583a1.239,1.239,0,0,0,.607,1.06,21.825,21.825,0,0,0,11.04,2.936l3.328-23.293" transform="translate(-12.675 -85.933)"/>
    <path id="Path_84" data-name="Path 84" class="cls-1" d="M46.28,159.632c-7.487,0-8.007,9.047-8.007,9.047,4.315-.728,6.967,1.092,11.334-.728L46.28,191.243a21.824,21.824,0,0,0,11.04-2.936,1.239,1.239,0,0,0,.607-1.06C57.987,175.644,59.447,159.632,46.28,159.632Z" transform="translate(-32.138 -85.76)"/>
    <path id="Path_85" data-name="Path 85" class="cls-3" d="M123.743,191.982c.052-9.971,1.128-23.187-6.922-26.712a7.391,7.391,0,0,0,.266,4.087c1.664,3.328,3.328,3.328,4.991,5.823,1.664,9.151-3.179,18.863-4.787,20.185h0a20.928,20.928,0,0,0,5.845-2.324A1.239,1.239,0,0,0,123.743,191.982Z" transform="translate(-97.954 -90.495)"/>
    <path id="Path_86" data-name="Path 86" class="cls-4" d="M26.748,312.876l-7.423-3.093a1.664,1.664,0,0,1-1.024-1.536v-2.01H9.983v2.01a1.664,1.664,0,0,1-1.024,1.536l-7.423,3.093A2.5,2.5,0,0,0,0,315.18v3.328a1.664,1.664,0,0,0,1.664,1.664H26.62a1.664,1.664,0,0,0,1.664-1.664V315.18A2.5,2.5,0,0,0,26.748,312.876Z" transform="translate(0 -208.865)"/>
    <path id="Path_87" data-name="Path 87" class="cls-5" d="M26.748,331.988,19.571,329l-5.429,2.343L8.713,329l-7.177,2.991A2.5,2.5,0,0,0,0,334.291v3.328a1.664,1.664,0,0,0,1.664,1.664H26.62a1.664,1.664,0,0,0,1.664-1.664v-3.328A2.5,2.5,0,0,0,26.748,331.988Z" transform="translate(0 -227.976)"/>
    <path id="Path_88" data-name="Path 88" class="cls-6" d="M59.158,306.237H50.839v2.01a1.664,1.664,0,0,1-1.024,1.536l-1.159.483C57.528,312.528,59.158,306.237,59.158,306.237Z" transform="translate(-40.857 -208.865)"/>
    <g id="Group_48" data-name="Group 48" transform="translate(0 99.66)">
      <path id="Path_89" data-name="Path 89" class="cls-7" d="M4.055,353.816.716,351.16A2.49,2.49,0,0,0,0,352.9v3.328a1.664,1.664,0,0,0,1.664,1.664H4.991v-2.128A2.5,2.5,0,0,0,4.055,353.816Z" transform="translate(0 -346.247)"/>
      <path id="Path_90" data-name="Path 90" class="cls-7" d="M150.3,356.283v-3.328a2.49,2.49,0,0,0-.7-1.731l-3.35,2.646a2.5,2.5,0,0,0-.937,1.949v2.128h3.328A1.663,1.663,0,0,0,150.3,356.283Z" transform="translate(-122.014 -346.3)"/>
      <path id="Path_91" data-name="Path 91" class="cls-7" d="M83.99,349.9h-.25a.707.707,0,0,1-.707-.707v-5.57H84.7V349.2A.707.707,0,0,1,83.99,349.9Z" transform="translate(-69.723 -339.921)"/>
      <path id="Path_92" data-name="Path 92" class="cls-7" d="M53.361,324.213,48.6,320.642a.665.665,0,0,0-.953.163l-.941,1.411,2.919,4.087a.666.666,0,0,0,.957.133Z" transform="translate(-39.219 -320.509)"/>
      <path id="Path_93" data-name="Path 93" class="cls-7" d="M88.222,324.213l4.761-3.571a.665.665,0,0,1,.953.163l.941,1.411L91.958,326.3a.666.666,0,0,1-.957.133Z" transform="translate(-74.08 -320.509)"/>
    </g>
    <path id="Path_94" data-name="Path 94" class="cls-8" d="M49.622,206.339c-4.159,4.159-12.322.832-12.322,7.487l.516,4.9a3.328,3.328,0,0,0,1.7,2.608l4.737,2.631a2.5,2.5,0,0,0,2.424,0l4.737-2.631a3.327,3.327,0,0,0,1.7-2.608l.6-5.822a9.179,9.179,0,0,0,.038-1.245C53.432,209.543,50.454,208,49.622,206.339Z" transform="translate(-31.321 -124.98)"/>
    <path id="Path_95" data-name="Path 95" class="cls-4" d="M37.3,213.823l.516,4.9a3.328,3.328,0,0,0,1.7,2.608l4.737,2.631a2.485,2.485,0,0,0,1.694.253h0s-2.388-.724-3.809-4.571c-.435-1.179-1.04-7.418-.52-8.18,1.028-1.507,6.759-1.664,8.452-4.46q-.126-.156-.231-.312l-.018-.025a3.164,3.164,0,0,1-.2-.333C45.463,210.5,37.3,207.168,37.3,213.823Z" transform="translate(-31.321 -124.978)"/>
    <path id="Path_96" data-name="Path 96" class="cls-7" d="M107.368,382.783h-2.163a1.414,1.414,0,0,0-1.414,1.414v.25h4.991v-.25A1.414,1.414,0,0,0,107.368,382.783Z" transform="translate(-87.153 -273.141)"/>
    <path id="Path_97" data-name="Path 97" class="cls-4" d="M381.236,299.591v-4.569H369.487v4.569l5.874,5.222Z" transform="translate(-310.259 -199.448)"/>
    <path id="Path_98" data-name="Path 98" class="cls-5" d="M332.195,325.221l-8.077-1.9a1.3,1.3,0,0,1-.339-.136L317.237,327l-6.287-4a1.3,1.3,0,0,1-.594.321l-8.077,1.9a2.611,2.611,0,0,0-2.013,2.542v5.112a1.306,1.306,0,0,0,1.305,1.305H332.9a1.306,1.306,0,0,0,1.305-1.305v-5.112A2.612,2.612,0,0,0,332.195,325.221Z" transform="translate(-252.135 -222.941)"/>
    <path id="Path_99" data-name="Path 99" class="cls-6" d="M369.487,295.022v4.821c7.4,2.666,11.749-4.007,11.749-4.007v-.814Z" transform="translate(-310.259 -199.448)"/>
    <path id="Path_100" data-name="Path 100" class="cls-8" d="M353.2,201.37l.569,12.513a3.916,3.916,0,0,0,1.562,2.955l2.7,2.024a3.916,3.916,0,0,0,2.35.783h2.611a3.916,3.916,0,0,0,2.35-.783l2.7-2.024a3.916,3.916,0,0,0,1.562-2.955l.569-12.513Z" transform="translate(-296.583 -120.808)"/>
    <path id="Path_101" data-name="Path 101" class="cls-4" d="M359.727,203.981c2.611,0,6.527-.653,7.456-2.611H353.2l.569,12.513a3.916,3.916,0,0,0,1.562,2.955l2.7,2.024a3.916,3.916,0,0,0,2.35.783h1.305c-1.305,0-3.916-2.611-3.916-5.874v-7.833A2.084,2.084,0,0,1,359.727,203.981Z" transform="translate(-296.583 -120.808)"/>
    <path id="Path_102" data-name="Path 102" class="cls-7" d="M476.436,346.416l4.229-3.8a2.606,2.606,0,0,1,.562,1.618v5.112a1.306,1.306,0,0,1-1.305,1.305h-4.569v-1.808A3.264,3.264,0,0,1,476.436,346.416Z" transform="translate(-399.155 -239.413)"/>
    <path id="Path_103" data-name="Path 103" class="cls-9" d="M399.217,361.973h-3.264l.408-5.874h2.448Z" transform="translate(-332.482 -250.734)"/>
    <path id="Path_104" data-name="Path 104" class="cls-10" d="M399.217,347.955h-3.264v.377a1.581,1.581,0,0,0,1.581,1.581h.1a1.581,1.581,0,0,0,1.581-1.581v-.377Z" transform="translate(-332.482 -243.895)"/>
    <g id="Group_49" data-name="Group 49" transform="translate(57.27 98.523)">
      <path id="Path_105" data-name="Path 105" class="cls-7" d="M359.137,313.582l5.966,5.369a22.506,22.506,0,0,0-3.733,2.543.837.837,0,0,1-1.3-.293l-2.8-6.166.887-1.33A.653.653,0,0,1,359.137,313.582Z" transform="translate(-357.27 -313.414)"/>
      <path id="Path_106" data-name="Path 106" class="cls-7" d="M412.1,313.582l-5.966,5.369a22.506,22.506,0,0,1,3.733,2.543.837.837,0,0,0,1.3-.293l2.8-6.166-.887-1.33A.653.653,0,0,0,412.1,313.582Z" transform="translate(-398.3 -313.414)"/>
    </g>
    <path id="Path_107" data-name="Path 107" class="cls-3" d="M430.818,172.27l.612,4.324c2.793.559,3.2,4.942,3.254,6.194a1.288,1.288,0,0,0,.206.638l1.066,1.653a6.252,6.252,0,0,1,1.305-4.569S437.835,169.659,430.818,172.27Z" transform="translate(-361.758 -96.032)"/>
    <path id="Path_108" data-name="Path 108" class="cls-8" d="M453,243.768l-.737,2.948a.785.785,0,0,1-.761.594h0a.785.785,0,0,1-.779-.687l-.377-3.016a1.351,1.351,0,0,1,1.341-1.519h0A1.351,1.351,0,0,1,453,243.768Z" transform="translate(-378.143 -155)"/>
    <path id="Path_109" data-name="Path 109" class="cls-1" d="M343.25,158.257l.965.659c-4.365,3.223-3.549,8.75-3.549,8.75,1.305,1.305,1.305,4.569,1.305,4.569l1.305-1.305s-.5-3.771,1.958-5.222c2.284-1.346,4.283-.653,6.323-.653,5.466,0,7-2.06,6.731-4.569-.137-1.3-2.122-4-7.18-3.916A21.978,21.978,0,0,0,343.25,158.257Z" transform="translate(-286.008 -83.188)"/>
    <path id="Path_110" data-name="Path 110" class="cls-2" d="M342.87,176.781a7.17,7.17,0,0,1,1.346-5.568c-4.365,3.223-3.549,8.75-3.549,8.75,1.305,1.305,1.305,4.569,1.305,4.569l1.305-1.305s-.5-3.771,1.958-5.222c2.284-1.346,4.283-.653,6.323-.653a16.049,16.049,0,0,0,2.354-.162C349.7,177.332,347.221,174.144,342.87,176.781Z" transform="translate(-286.008 -95.485)"/>
    <path id="Path_111" data-name="Path 111" class="cls-4" d="M345.1,243.768l.737,2.948a.785.785,0,0,0,.761.594h0a.785.785,0,0,0,.779-.687l.377-3.016a1.351,1.351,0,0,0-1.341-1.519h0A1.351,1.351,0,0,0,345.1,243.768Z" transform="translate(-289.743 -155)"/>
    <path id="Path_112" data-name="Path 112" class="cls-7" d="M431.06,384.6H427.8a1.306,1.306,0,0,0-1.305,1.305h5.874A1.305,1.305,0,0,0,431.06,384.6Z" transform="translate(-358.125 -274.668)"/>
    <path id="Path_113" data-name="Path 113" class="cls-1" d="M151.758,57.5c-22.384,0-19.9,27.221-19.8,46.947a2.106,2.106,0,0,0,1.032,1.8,37.781,37.781,0,0,0,37.536,0,2.107,2.107,0,0,0,1.032-1.8C171.66,84.721,174.142,57.5,151.758,57.5Z" transform="translate(-110.697)"/>
    <path id="Path_114" data-name="Path 114" class="cls-2" d="M150.323,57.849c-20.818,1.167-18.458,27.6-18.358,46.891a2.106,2.106,0,0,0,1.032,1.8,37.1,37.1,0,0,0,18.768,4.991l5.657-39.6" transform="translate(-110.704 -0.293)"/>
    <path id="Path_115" data-name="Path 115" class="cls-1" d="M184.853,57.5c-12.728,0-13.612,15.379-13.612,15.379,7.336-1.237,11.844,1.856,19.268-1.237l-5.657,39.6a37.1,37.1,0,0,0,18.768-4.991,2.107,2.107,0,0,0,1.032-1.8C204.755,84.721,207.237,57.5,184.853,57.5Z" transform="translate(-143.791)"/>
    <path id="Path_116" data-name="Path 116" class="cls-3" d="M316.542,112.5c.088-16.95,1.918-39.418-11.768-45.41-.239,1.24-.671,4.7.453,6.949,2.828,5.657,5.657,5.657,8.485,9.9,2.828,15.556-5.4,32.067-8.139,34.315h0a35.575,35.575,0,0,0,9.936-3.951A2.106,2.106,0,0,0,316.542,112.5Z" transform="translate(-255.681 -8.049)"/>
    <path id="Path_117" data-name="Path 117" class="cls-4" d="M151.649,318.014l-12.619-5.258a2.828,2.828,0,0,1-1.741-2.611v-3.418H123.147v3.418a2.829,2.829,0,0,1-1.741,2.611l-12.619,5.258a4.243,4.243,0,0,0-2.611,3.916v5.657a2.829,2.829,0,0,0,2.828,2.828h42.426a2.828,2.828,0,0,0,2.828-2.828v-5.657A4.242,4.242,0,0,0,151.649,318.014Z" transform="translate(-89.157 -209.277)"/>
    <path id="Path_118" data-name="Path 118" class="cls-11" d="M151.649,350.507l-12.2-5.084-9.23,3.983-9.23-3.983-12.2,5.084a4.243,4.243,0,0,0-2.611,3.916v5.657a2.829,2.829,0,0,0,2.828,2.828h42.426a2.828,2.828,0,0,0,2.828-2.828v-5.657A4.242,4.242,0,0,0,151.649,350.507Z" transform="translate(-89.157 -241.769)"/>
    <path id="Path_119" data-name="Path 119" class="cls-6" d="M206.744,306.728H192.6v3.418a2.829,2.829,0,0,1-1.741,2.611l-1.971.821C203.973,317.423,206.744,306.728,206.744,306.728Z" transform="translate(-158.612 -209.277)"/>
    <g id="Group_50" data-name="Group 50" transform="translate(17.02 101.34)">
      <path id="Path_120" data-name="Path 120" class="cls-12" d="M113.072,387.613,107.4,383.1a4.233,4.233,0,0,0-1.216,2.961v5.657a2.828,2.828,0,0,0,2.828,2.828h5.657v-3.618A4.244,4.244,0,0,0,113.072,387.613Z" transform="translate(-106.179 -374.745)"/>
      <path id="Path_121" data-name="Path 121" class="cls-12" d="M361.684,391.808v-5.657a4.233,4.233,0,0,0-1.2-2.943l-5.695,4.5a4.243,4.243,0,0,0-1.592,3.313v3.618h5.657A2.828,2.828,0,0,0,361.684,391.808Z" transform="translate(-313.602 -374.837)"/>
      <path id="Path_122" data-name="Path 122" class="cls-12" d="M248.747,380.962h0a1.414,1.414,0,0,1-1.414-1.414v-9.256h2.828v9.256A1.414,1.414,0,0,1,248.747,380.962Z" transform="translate(-224.706 -363.992)"/>
      <path id="Path_123" data-name="Path 123" class="cls-12" d="M196.891,337.286l-8.094-6.071a1.131,1.131,0,0,0-1.62.277l-1.6,2.4,4.962,6.947a1.131,1.131,0,0,0,1.627.226Z" transform="translate(-172.85 -330.989)"/>
      <path id="Path_124" data-name="Path 124" class="cls-12" d="M256.155,337.286l8.094-6.071a1.131,1.131,0,0,1,1.62.277l1.6,2.4-4.962,6.947a1.131,1.131,0,0,1-1.627.226Z" transform="translate(-232.114 -330.989)"/>
    </g>
    <path id="Path_125" data-name="Path 125" class="cls-8" d="M190.535,136.9c-7.071,7.071-20.948,1.414-20.948,12.728l.878,8.334a5.656,5.656,0,0,0,2.886,4.433l8.052,4.473a4.243,4.243,0,0,0,4.121,0l8.052-4.473a5.657,5.657,0,0,0,2.886-4.433l1.014-9.9a15.587,15.587,0,0,0,.064-2.117C197.011,142.347,191.949,139.728,190.535,136.9Z" transform="translate(-142.402 -66.672)"/>
    <path id="Path_126" data-name="Path 126" class="cls-4" d="M169.587,149.628l.878,8.334a5.656,5.656,0,0,0,2.886,4.433l8.052,4.473a4.224,4.224,0,0,0,2.879.43h0s-4.06-1.23-6.476-7.771c-.74-2-1.768-12.61-.884-13.906,1.747-2.562,11.49-2.828,14.369-7.582q-.214-.265-.394-.53l-.031-.043a5.343,5.343,0,0,1-.333-.566C183.464,143.971,169.587,138.314,169.587,149.628Z" transform="translate(-142.402 -66.672)"/>
    <path id="Path_127" data-name="Path 127" class="cls-12" d="M289.693,436.856h-5.657a1.414,1.414,0,0,0-1.414,1.414v1.414h8.485V438.27A1.414,1.414,0,0,0,289.693,436.856Z" transform="translate(-237.318 -318.546)"/>
  </g>
</svg>
