<svg xmlns="http://www.w3.org/2000/svg" viewBox="0 0 66.82 66.951">
  <defs>
    <style>
      .cls-1 {
        fill: #68544f;
      }

      .cls-2 {
        fill: #53433f;
      }

      .cls-3 {
        fill: #e10000;
      }

      .cls-4 {
        fill: #cd0000;
      }

      .cls-5 {
        fill: #ff3636;
      }

      .cls-6 {
        fill: #f40000;
      }

      .cls-7 {
        fill: #00c0f1;
      }

      .cls-8 {
        fill: #00abe9;
      }

      .cls-9 {
        fill: #3e322e;
      }

      .cls-10 {
        fill: #ede9e8;
      }

      .cls-11 {
        fill: #dfd7d5;
      }
    </style>
  </defs>
  <g id="parking" transform="translate(-0.5)">
    <path id="Path_128" data-name="Path 128" class="cls-1" d="M5.955,279.838a1.96,1.96,0,0,1-1.465-.657L1,275.258a1.962,1.962,0,1,1,2.931-2.609l3.494,3.923a1.961,1.961,0,0,1-1.465,3.266Z" transform="translate(0 -236.424)"/>
    <path id="Path_129" data-name="Path 129" class="cls-2" d="M272.462,279.846a1.962,1.962,0,0,1-1.387-3.348L275,272.574a1.961,1.961,0,0,1,2.774,2.774l-3.923,3.923A1.955,1.955,0,0,1,272.462,279.846Z" transform="translate(-234.694 -236.432)"/>
    <path id="Path_130" data-name="Path 130" class="cls-3" d="M65.657,225.1l-3.021-9.062A5.816,5.816,0,0,0,57.066,212H39.177a5.816,5.816,0,0,0-5.57,4.041L30.586,225.1a1.891,1.891,0,0,0,.235,1.765,2.045,2.045,0,0,0,1.608.824H63.813a2.045,2.045,0,0,0,1.608-.824A1.891,1.891,0,0,0,65.657,225.1Z" transform="translate(-26.045 -184.278)"/>
    <path id="Path_131" data-name="Path 131" class="cls-4" d="M182.8,226.868a2.045,2.045,0,0,1-1.608.824H165.5V212h8.944a5.816,5.816,0,0,1,5.57,4.041l3.021,9.062A1.891,1.891,0,0,1,182.8,226.868Z" transform="translate(-143.424 -184.278)"/>
    <path id="Path_132" data-name="Path 132" class="cls-1" d="M10.307,422H5.532L.5,425.923v1.961a5.884,5.884,0,0,0,11.769,0v-3.923A1.96,1.96,0,0,0,10.307,422Z" transform="translate(0 -366.818)"/>
    <path id="Path_133" data-name="Path 133" class="cls-2" d="M242.461,422a1.96,1.96,0,0,0-1.961,1.961v3.923a5.884,5.884,0,0,0,11.769,0v-1.961L248.817,422Z" transform="translate(-208.617 -366.818)"/>
    <path id="Path_134" data-name="Path 134" class="cls-5" d="M37.768,302H6.384A5.876,5.876,0,0,0,.5,307.884v13.73H43.652v-13.73A5.876,5.876,0,0,0,37.768,302Z" transform="translate(0 -262.509)"/>
    <path id="Path_135" data-name="Path 135" class="cls-6" d="M187.076,307.884v13.73H165.5V302h15.692A5.876,5.876,0,0,1,187.076,307.884Z" transform="translate(-143.424 -262.509)"/>
    <path id="Path_136" data-name="Path 136" class="cls-1" d="M373.269,248.4a1.942,1.942,0,0,1-1.961,1.961h-7.846a1.961,1.961,0,0,1,0-3.923h1.961V212.961a1.961,1.961,0,0,1,3.923,0v33.476h1.961A1.942,1.942,0,0,1,373.269,248.4Z" transform="translate(-313.794 -183.409)"/>
    <path id="Path_137" data-name="Path 137" class="cls-2" d="M412.384,248.4a1.942,1.942,0,0,1-1.961,1.961H406.5V211a1.942,1.942,0,0,1,1.961,1.961v33.476h1.961A1.942,1.942,0,0,1,412.384,248.4Z" transform="translate(-352.91 -183.409)"/>
    <path id="Path_138" data-name="Path 138" class="cls-7" d="M327,0H303.461A1.942,1.942,0,0,0,301.5,1.961V29.553a1.942,1.942,0,0,0,1.961,1.961H327a1.942,1.942,0,0,0,1.961-1.961V1.961A1.942,1.942,0,0,0,327,0Z" transform="translate(-261.64)"/>
    <g id="Group_51" data-name="Group 51" transform="translate(9.091 31.645)">
      <path id="Path_139" data-name="Path 139" class="cls-1" d="M132.269,363.961a1.942,1.942,0,0,1-1.961,1.961h-7.846a1.961,1.961,0,1,1,0-3.923h7.846A1.942,1.942,0,0,1,132.269,363.961Z" transform="translate(-113.4 -346.308)"/>
      <path id="Path_140" data-name="Path 140" class="cls-1" d="M92.17,249.846H66.2l2.2-6.512A1.944,1.944,0,0,1,70.24,242H88.129a1.944,1.944,0,0,1,1.844,1.334Z" transform="translate(-66.2 -242)"/>
    </g>
    <path id="Path_141" data-name="Path 141" class="cls-8" d="M420.23,1.961V29.553a1.942,1.942,0,0,1-1.961,1.961H406.5V0h11.769A1.942,1.942,0,0,1,420.23,1.961Z" transform="translate(-352.91)"/>
    <path id="Path_142" data-name="Path 142" class="cls-2" d="M171.384,363.961a1.942,1.942,0,0,1-1.961,1.961H165.5V362h3.923A1.942,1.942,0,0,1,171.384,363.961Z" transform="translate(-143.424 -314.663)"/>
    <path id="Path_143" data-name="Path 143" class="cls-9" d="M178.485,249.846H165.5V242h8.944a1.944,1.944,0,0,1,1.844,1.334Z" transform="translate(-143.424 -210.355)"/>
    <path id="Path_144" data-name="Path 144" class="cls-10" d="M367.384,61h-3.923a1.942,1.942,0,0,0-1.961,1.961V74.73a1.961,1.961,0,0,0,3.923,0V72.769h1.961a5.884,5.884,0,0,0,0-11.769Zm0,7.846h-1.961V64.923h1.961a1.961,1.961,0,0,1,0,3.923Z" transform="translate(-313.794 -53.023)"/>
    <path id="Path_145" data-name="Path 145" class="cls-11" d="M412.384,66.884a5.876,5.876,0,0,1-5.884,5.884V68.846a1.961,1.961,0,0,0,0-3.923V61A5.876,5.876,0,0,1,412.384,66.884Z" transform="translate(-352.91 -53.023)"/>
  </g>
</svg>
