<svg xmlns="http://www.w3.org/2000/svg" viewBox="0 0 69 70.204">
  <defs>
    <style>
      .cls-1 {
        fill: #6a9923;
      }

      .cls-2 {
        fill: #618c20;
      }

      .cls-3 {
        fill: #88b337;
      }

      .cls-4 {
        fill: #595959;
      }
    </style>
  </defs>
  <g id="trees" transform="translate(-4.049 0.001)">
    <path id="Path_40" data-name="Path 40" class="cls-1" d="M42.118,32.135a9.508,9.508,0,0,0-4.2-7.9,8.32,8.32,0,0,0-6.5-13.518c-.119,0-.238.013-.357.018a8.327,8.327,0,1,0-15.941,0c-.119,0-.238-.018-.357-.018a8.32,8.32,0,0,0-6.5,13.518,9.517,9.517,0,0,0,0,15.791,8.32,8.32,0,0,0,6.5,13.518H31.412a8.32,8.32,0,0,0,6.5-13.518A9.508,9.508,0,0,0,42.118,32.135Z" transform="translate(0 0)"/>
    <path id="Path_41" data-name="Path 41" class="cls-2" d="M91.954,108.366a1.19,1.19,0,0,0-1.682-.024l-6.307,6.1V97.3a1.19,1.19,0,0,0-2.379,0v8.43l-5.4-5.4A1.19,1.19,0,0,0,74.5,102.01l7.087,7.086v16.264l-5.107-5.107a1.19,1.19,0,0,0-1.682,1.682l6.789,6.789v22.11a1.19,1.19,0,1,0,2.379,0V117.752l7.97-7.7a1.19,1.19,0,0,0,.022-1.682l0,0Z" transform="translate(-59.69 -81.822)"/>
    <path id="Path_42" data-name="Path 42" class="cls-1" d="M250.118,32.136a9.508,9.508,0,0,0-4.2-7.9,8.32,8.32,0,0,0-6.5-13.518c-.119,0-.238.013-.357.018a8.327,8.327,0,1,0-15.941,0c-.119,0-.238-.018-.357-.018a8.32,8.32,0,0,0-6.5,13.518,9.517,9.517,0,0,0,0,15.791,8.32,8.32,0,0,0,6.5,13.518h16.655a8.32,8.32,0,0,0,6.5-13.518,9.508,9.508,0,0,0,4.2-7.9Z" transform="translate(-177.07 0)"/>
    <path id="Path_43" data-name="Path 43" class="cls-2" d="M299.943,108.358a1.19,1.19,0,0,0-1.682,0l-6.3,6.3V97.3a1.19,1.19,0,1,0-2.379,0v8.43l-5.4-5.4a1.19,1.19,0,0,0-1.682,1.682l7.087,7.086v16.264l-5.107-5.107a1.19,1.19,0,0,0-1.682,1.682l6.789,6.789v22.11a1.19,1.19,0,0,0,2.379,0v-32.9a1.148,1.148,0,0,0,.246-.164l7.732-7.732a1.19,1.19,0,0,0,0-1.682Z" transform="translate(-236.76 -81.822)"/>
    <path id="Path_44" data-name="Path 44" class="cls-3" d="M146.118,32.136a9.508,9.508,0,0,0-4.2-7.9,8.32,8.32,0,0,0-6.5-13.518c-.119,0-.238.013-.357.018a8.327,8.327,0,1,0-15.941,0c-.119,0-.238-.018-.357-.018a8.32,8.32,0,0,0-6.5,13.518,9.517,9.517,0,0,0,0,15.791,8.32,8.32,0,0,0,6.5,13.518h16.655a8.32,8.32,0,0,0,6.5-13.518A9.508,9.508,0,0,0,146.118,32.136Z" transform="translate(-88.535 0)"/>
    <path id="Path_45" data-name="Path 45" class="cls-1" d="M195.943,108.358a1.19,1.19,0,0,0-1.682,0l-6.3,6.3V97.3a1.19,1.19,0,0,0-2.379,0v8.43l-5.4-5.4a1.19,1.19,0,0,0-1.682,1.682l7.087,7.086v16.264l-5.107-5.107a1.19,1.19,0,0,0-1.682,1.682l6.789,6.789v22.11a1.19,1.19,0,0,0,2.379,0v-32.9a1.148,1.148,0,0,0,.246-.164l7.732-7.732a1.19,1.19,0,0,0,0-1.682Z" transform="translate(-148.225 -81.822)"/>
    <path id="Path_46" data-name="Path 46" class="cls-4" d="M133.7,458.492H93.256a1.19,1.19,0,0,1,0-2.379H133.7a1.19,1.19,0,0,1,0,2.379Z" transform="translate(-74.93 -388.289)"/>
  </g>
</svg>
